<?xml version="1.0" standalone="no"?>
<!DOCTYPE svg PUBLIC "-//W3C//DTD SVG 20010904//EN" "http://www.w3.org/TR/2001/REC-SVG-20010904/DTD/svg10.dtd">
<!-- Created using Krita: https://krita.org -->
<svg xmlns="http://www.w3.org/2000/svg" 
    xmlns:xlink="http://www.w3.org/1999/xlink"
    xmlns:krita="http://krita.org/namespaces/svg/krita"
    xmlns:sodipodi="http://sodipodi.sourceforge.net/DTD/sodipodi-0.dtd"
    width="921.6pt"
    height="518.4pt"
    viewBox="0 0 921.6 518.4">
<defs/>
<path id="shape0" transform="translate(631.431751208556, 284.962179829289)" fill="#a5ccd9" fill-rule="evenodd" stroke="none" stroke-width="0.48" stroke-linecap="square" stroke-linejoin="bevel" d="M0.600222 0L2.89393 0.631841L1.92393 2.92769L0.139337 3.26531L0 1.46626C0.0178637 1.34407 0.217938 0.855316 0.600222 0Z" sodipodi:nodetypes="cccccc"/><path id="shape1" transform="translate(629.781140725329, 289.354059281088)" fill="#a5ccd9" fill-rule="evenodd" stroke="none" stroke-width="0.48" stroke-linecap="square" stroke-linejoin="bevel" d="M0.150055 0.0551224L0 2.61625L2.701 2.78506L2.49735 0.80272L0.873537 0.0310064C0.659172 -0.0172258 0.418012 -0.00918707 0.150055 0.0551224Z" sodipodi:nodetypes="cccccc"/><path id="shape2" transform="translate(628.028706868137, 293.508912292439)" fill="#a5ccd9" fill-rule="evenodd" stroke="none" stroke-width="0.48" stroke-linecap="square" stroke-linejoin="bevel" d="M0.198288 0L0 2.29103L1.54879 1.75565L1.78995 1.00805C1.68991 0.950173 1.15936 0.614156 0.198288 0Z" sodipodi:nodetypes="ccccc"/><path id="shape3" transform="translate(629.05051496518, 271.242731343065)" fill="#a5ccd9" fill-rule="evenodd" stroke="none" stroke-width="0.48" stroke-linecap="square" stroke-linejoin="bevel" d="M3.35481 2.20421C3.0154 2.60936 2.24547 3.24281 1.04503 4.10455L1.53271 6.07725L0 6.52098L0.128619 8.976L1.47912 9.00011L0.852101 7.53386C2.14186 7.53707 2.97074 7.5419 3.33873 7.54833C3.70673 7.55476 4.59992 7.72036 6.0183 8.04512L8.49421 7.44222L7.9583 4.82804L8.19946 3.42448L6.96686 1.75565L4.0515 0L3.12437 0.0385857C3.14223 0.112542 3.21905 0.834416 3.35481 2.20421Z" sodipodi:nodetypes="ccccccczcccccccc"/><path id="shape4" transform="translate(628.589630218686, 269.408785190765)" fill="#a5ccd9" fill-rule="evenodd" stroke="none" stroke-width="0.48" stroke-linecap="square" stroke-linejoin="bevel" d="M0 0.946475L0.616299 1.63137L1.62917 1.14905L1.4416 0.00112542C1.36658 -0.0213829 0.886042 0.293734 0 0.946475Z" sodipodi:nodetypes="ccccc"/><path id="shape5" transform="translate(628.793276967137, 272.684871869595)" fill="#a5ccd9" fill-rule="evenodd" stroke="none" stroke-width="0.48" stroke-linecap="square" stroke-linejoin="bevel" d="M0 0L0.209006 1.69777L1.43625 0.602902C1.38623 0.593255 0.907478 0.392288 0 0Z" sodipodi:nodetypes="cccc"/><path id="shape6" transform="translate(628.750403967463, 265.387351412603)" fill="#a5ccd9" fill-rule="evenodd" stroke="none" stroke-width="0.48" stroke-linecap="square" stroke-linejoin="bevel" d="M1.37194 0.366564L0 2.41161L0.257238 2.93251L2.83498 2.71065L3.30658 1.58201L2.9636 0C2.9243 0.0128619 2.39374 0.13505 1.37194 0.366564Z" sodipodi:nodetypes="ccccccc"/><path id="shape7" transform="translate(628.096590722436, 265.363235350287)" fill="#a5ccd9" fill-rule="evenodd" stroke="none" stroke-width="0.48" stroke-linecap="square" stroke-linejoin="bevel" d="M0 0.853709L0.471603 1.34568L1.27011 0.463028L0.943206 0C0.868178 0.0128619 0.553776 0.297431 0 0.853709Z" sodipodi:nodetypes="ccccc"/><path id="shape8" transform="translate(623.471665882615, 265.218538976387)" fill="#a5ccd9" fill-rule="evenodd" stroke="none" stroke-width="0.48" stroke-linecap="square" stroke-linejoin="bevel" d="M0.198288 3.02898L1.09862 2.05951L2.02575 1.79906L2.48127 0.776537L1.72028 0L0.573426 0.0482321L0 1.5386L0.771714 1.828C0.760996 1.85694 0.569854 2.25726 0.198288 3.02898Z" sodipodi:nodetypes="ccccccccc"/><path id="shape9" transform="translate(622.683874513607, 266.837772349342)" fill="#a5ccd9" fill-rule="evenodd" stroke="none" stroke-width="0.48" stroke-linecap="square" stroke-linejoin="bevel" d="M0 1.29399L0.557349 0.666969L0.150055 0.00136601C0.150055 -0.0275733 0.100037 0.4033 0 1.29399Z" sodipodi:nodetypes="cccc"/><path id="shape10" transform="translate(617.914253299887, 264.716924880203)" fill="#a5ccd9" fill-rule="evenodd" stroke="none" stroke-width="0.48" stroke-linecap="square" stroke-linejoin="bevel" d="M2.56166 2.15598L3.47271 3.3039L4.01398 2.61418L3.46199 1.24439L2.74387 0L0 0.665603L0.535912 2.02575L1.76315 1.92928C1.81317 1.95501 2.07934 2.03057 2.56166 2.15598Z" sodipodi:nodetypes="ccccccccc"/><path id="shape11" transform="translate(616.49408518569, 259.89371241689)" fill="#a5ccd9" fill-rule="evenodd" stroke="none" stroke-width="0.48" stroke-linecap="square" stroke-linejoin="bevel" d="M0 2.68653C0.028582 2.34569 0.217938 1.63025 0.568067 0.5402L1.50055 0L1.56486 2.71065C1.53271 2.76531 1.01109 2.75727 0 2.68653Z" sodipodi:nodetypes="ccccc"/><path id="shape12" transform="translate(613.133935971642, 268.371495580296)" fill="#a5ccd9" fill-rule="evenodd" stroke="none" stroke-width="0.48" stroke-linecap="square" stroke-linejoin="bevel" d="M15.8952 18.2461L13.5104 17.976L12.0955 17.5612L11.7311 16.476L9.64107 16.8233L9.03013 18.849L7.2241 19.3072L5.8736 20.5034L7.2509 22.5291L8.66571 22.9729L10.2038 21.333L10.8362 22.1143L9.40526 24.9263L8.55852 25.1385L5.43951 25.0324L5.08581 23.3298L3.78354 23.3636L3.22083 21.9696L4.34625 21.2221L4.44807 20.5854L2.95288 20.841L2.19724 20.3828L0 20.1272L0.0321548 19.0516L1.81138 18.2944L2.80282 17.1802L1.92393 15.9069L2.81354 12.4486L4.50167 11.9904L5.32161 10.3216L6.26213 10.4857L7.98776 13.6931L9.83666 13.2397L8.66837 11.4358L9.31683 10.2156L8.33611 9.93099L7.92881 8.96635L8.94169 8.31522L9.55263 8.27181L8.86666 7.47116L9.98672 7.52903L8.8613 5.20425L8.80235 3.44377L11.6695 0.877825L13.2772 0L14.1508 4.12385L15.0725 5.8795L14.3544 7.36987L11.8892 7.69785L10.8174 8.12711L10.8495 9.20269L11.2247 10.0371L11.9964 11.5178L13.0682 11.5998L12.5966 10.2445L12.3608 9.3715L13.4541 9.04835L13.5666 9.90206L13.5398 10.6255L13.0575 10.2783L13.2772 11.6866L14.1186 13.1433L16.2676 14.2188L16.5249 14.0741L17.0929 15.3426L17.477 16.8398L17.1126 17.6887Z" sodipodi:nodetypes="cccccccccccccccccccccccccccccccccccccccccccccccccccccccccccccccccccc"/>
</svg>
