<?xml version="1.0" standalone="no"?>
<!DOCTYPE svg PUBLIC "-//W3C//DTD SVG 20010904//EN" "http://www.w3.org/TR/2001/REC-SVG-20010904/DTD/svg10.dtd">
<!-- Created using Krita: https://krita.org -->
<svg xmlns="http://www.w3.org/2000/svg" 
    xmlns:xlink="http://www.w3.org/1999/xlink"
    xmlns:krita="http://krita.org/namespaces/svg/krita"
    xmlns:sodipodi="http://sodipodi.sourceforge.net/DTD/sodipodi-0.dtd"
    width="921.6pt"
    height="518.4pt"
    viewBox="0 0 921.6 518.4">
<defs/>
<path id="shape0" transform="matrix(0.999999952904974 0 0 0.999999952904974 715.858745467554 347.304366681141)" fill="#f5c2e7" fill-rule="evenodd" stroke-opacity="0" stroke="#000000" stroke-width="0" stroke-linecap="square" stroke-linejoin="bevel" d="M0 9.14703L1.41726 15.3542L5.22189 16.6229L7.15453 19.8765L8.20042 21.8615L7.42737 24.1943L8.70821 26.8477L13.5208 27.7276L17.4316 26.9568L20.8952 26.95L19.7583 28.5461L21.5091 27.4343L25.4956 23.6827L26.4505 20.0948L25.0636 17.8098L24.6619 15.6066L20.6299 12.8372L19.4021 14.6107L18.1061 13.0964L15.9688 6.43225L14.0286 6.35722L13.3996 3.52648L11.8459 2.06678L6.22989 0L3.81221 1.78712L2.38737 5.04758L2.08421 7.78282C2.08421 7.76008 1.38947 8.21482 0 9.14703Z" sodipodi:nodetypes="cccccccccccccccccccccccccccc"/><path id="shape1" transform="matrix(0.999999952904974 0 0 0.999999952904974 737.898973938513 373.929848912886)" fill="#f5c2e7" fill-rule="evenodd" stroke-opacity="0" stroke="#000000" stroke-width="0" stroke-linecap="square" stroke-linejoin="bevel" d="M1.86442 3.99714C1.27326 2.18274 1.01811 1.23006 1.09895 1.13912C1.17979 1.04817 1.86695 0.668463 3.16042 0L6.27537 2.06678L5.76758 4.83613L3.00126 8.34215L0.341053 10.6477L0 8.0011L1.54611 4.94526C1.54611 4.97709 1.65221 4.66105 1.86442 3.99714Z" sodipodi:nodetypes="czcccccccc"/><path id="shape2" transform="matrix(0.999999952904974 0 0 0.999999952904974 714.340875099226 378.58180676136)" fill="#f5c2e7" fill-rule="evenodd" stroke-opacity="0" stroke="#000000" stroke-width="0" stroke-linecap="square" stroke-linejoin="bevel" d="M0.927362 0L5.9901 2.56472L10.2495 3.59469L12.8036 4.82931L18.6924 4.54964L19.8293 5.92067L18.1998 7.00522L11.6819 6.98476L6.79347 6.53457L3.12526 4.98619L0.00273065 1.63023C-0.0326378 1.57112 0.275573 1.02771 0.927362 0Z" sodipodi:nodetypes="cccccccccccc"/><path id="shape3" transform="matrix(0.999999952904974 0 0 0.999999952904974 716.052020446673 364.563471702845)" fill="#f5c2e7" fill-rule="evenodd" stroke-opacity="0" stroke="#000000" stroke-width="0" stroke-linecap="square" stroke-linejoin="bevel" d="M0.962526 0.14709L0 2.75955L2.87242 2.1593L4.896 1.36806L3.01642 0.0174899C2.92547 -0.0279838 2.24084 0.0152162 0.962526 0.14709Z" sodipodi:nodetypes="cccccc"/><path id="shape4" transform="matrix(0.999999952904974 0 0 0.999999952904974 706.630120378862 338.065921434862)" fill="#f5c2e7" fill-rule="evenodd" stroke-opacity="0" stroke="#000000" stroke-width="0" stroke-linecap="square" stroke-linejoin="bevel" d="M0.514476 15.5693L4.73747 7.91972L4.70531 5.58528L4.07294 3.13509L8.68178 0L13.012 1.84247L13.5586 4.29266L13.2049 7.53386L11.5328 8.41168L11.49 6.08689L10.9112 3.41483L8.52101 5.70104L7.87791 9.27986L6.55957 13.0902L2.28299 19.399L0.128619 21.7141L0 16.9005C0.0357275 16.8491 0.20722 16.4054 0.514476 15.5693Z" sodipodi:nodetypes="cccccccccccccccccc"/><path id="shape5" transform="matrix(0.999999952904974 0 0 0.999999952904974 696.195386206931 365.728480167162)" fill="#f5c2e7" fill-rule="evenodd" stroke-opacity="0" stroke="#000000" stroke-width="0" stroke-linecap="square" stroke-linejoin="bevel" d="M11.1475 0L2.09059 1.95822C0.297069 6.29268 -0.342453 8.74931 0.172023 9.32809C0.686499 9.90688 4.34857 11.3345 11.1582 13.6111L14.0414 13.5339L15.4241 8.28628L12.1014 6.17371L11.5227 2.12221C11.5369 1.98073 11.4119 1.27333 11.1475 0Z" sodipodi:nodetypes="cczcccccc"/><path id="shape6" transform="matrix(0.999999952904974 0 0 0.999999952904974 732.391446996024 348.34562248864)" fill="#f5c2e7" fill-rule="evenodd" stroke-opacity="0" stroke="#000000" stroke-width="0" stroke-linecap="square" stroke-linejoin="bevel" d="M3.78354 2.02575L0.171492 0L0 3.27014L1.83282 8.20911L5.5199 9.0387L8.03869 11.2091L10.1823 13.8137L13.6443 14.5854L15.7665 11.5275L14.2124 7.28305L10.7183 3.22191C10.6325 3.11258 8.32094 2.71386 3.78354 2.02575Z" sodipodi:nodetypes="cccccccccccc"/>
</svg>
