<?xml version="1.0" standalone="no"?>
<!DOCTYPE svg PUBLIC "-//W3C//DTD SVG 20010904//EN" "http://www.w3.org/TR/2001/REC-SVG-20010904/DTD/svg10.dtd">
<!-- Created using Krita: https://krita.org -->
<svg xmlns="http://www.w3.org/2000/svg" 
    xmlns:xlink="http://www.w3.org/1999/xlink"
    xmlns:krita="http://krita.org/namespaces/svg/krita"
    xmlns:sodipodi="http://sodipodi.sourceforge.net/DTD/sodipodi-0.dtd"
    width="921.6pt"
    height="518.4pt"
    viewBox="0 0 921.6 518.4">
<defs/>
<path id="shape0" transform="matrix(0.999999952904974 0 0 0.999999952904974 313.594576401037 356.703336668829)" fill="#bac2de" fill-rule="evenodd" stroke-opacity="0" stroke="#000000" stroke-width="0" stroke-linecap="square" stroke-linejoin="bevel" d="M40.1398 14.8266L30.5041 5.5274L27.5352 3.50165L27.7388 2.20903L23.7945 0L21.1364 0.501614L17.6208 1.81353L16.281 5.48882L12.8512 6.29912L9.82863 3.57882L7.48133 7.35058L5.80929 11.6684L2.96896 12.7102L3.18332 15.9032L2.06862 16.7907L2.80818 18.5174L3.61205 19.7907L0.450166 20.5335L0 26.9001L2.77603 29.8326L4.04078 33.2957L8.47814 35.2154L11.8437 40.3087L12.6904 39.9035L12.9155 37.9742L16.131 38.0225L16.3346 36.2186L18.1567 36.4694L22.8084 41.7363L28.0604 40.6945L29.1858 38.4758L29.3144 33.942L36.2706 29.6397L36.724 28.8051L41.044 30.9742L42.8629 31.1175L43.7724 33.8732L46.0006 34.2961L48.4379 38.369L48.4909 39.3922L52.6518 39.9447L54.88 30.1565L49.2185 24.952Z" sodipodi:nodetypes="cccccccccccccccccccccccccccccccccccccccccccc"/>
</svg>
