<?xml version="1.0" standalone="no"?>
<!DOCTYPE svg PUBLIC "-//W3C//DTD SVG 20010904//EN" "http://www.w3.org/TR/2001/REC-SVG-20010904/DTD/svg10.dtd">
<!-- Created using Krita: https://krita.org -->
<svg xmlns="http://www.w3.org/2000/svg" 
    xmlns:xlink="http://www.w3.org/1999/xlink"
    xmlns:krita="http://krita.org/namespaces/svg/krita"
    xmlns:sodipodi="http://sodipodi.sourceforge.net/DTD/sodipodi-0.dtd"
    width="921.6pt"
    height="518.4pt"
    viewBox="0 0 921.6 518.4">
<defs/>
<path id="shape0" transform="matrix(0.999999952904974 0 0 0.999999952904974 518.663262213351 326.044498614825)" fill="#cfa0ba" fill-rule="evenodd" stroke-opacity="0" stroke="#000000" stroke-width="0" stroke-linecap="square" stroke-linejoin="bevel" d="M3.00111 12.2413L2.71172 19.9102L0 27.6756L0.975361 31.2255L7.74929 37.4378L15.2414 46.052L18.3604 40.0327L24.0518 38.1902L28.2962 38.8751L29.6896 39.9169L33.1087 39.5793L33.4838 40.1581L33.8161 39.9266L34.6414 43.2256L38.8001 45.9266L39.3145 47.6437L40.858 45.7144L43.0552 46.3318L46.8066 43.1485L47.3318 41.007L50.6116 30.3669L48.0821 25.8235L43.8376 24.2704L42.5729 18.3764L37.1173 13.9198L33.6017 7.12871L32.9157 4.85215L30.89 3.67529L29.636 0.559493L27.9318 0L22.787 1.97752C22.5083 1.97752 15.913 5.39878 3.00111 12.2413Z" sodipodi:nodetypes="cccccccccccccccccccccccccccccccc"/>
</svg>
