<?xml version="1.0" standalone="no"?>
<!DOCTYPE svg PUBLIC "-//W3C//DTD SVG 20010904//EN" "http://www.w3.org/TR/2001/REC-SVG-20010904/DTD/svg10.dtd">
<!-- Created using Krita: https://krita.org -->
<svg xmlns="http://www.w3.org/2000/svg" 
    xmlns:xlink="http://www.w3.org/1999/xlink"
    xmlns:krita="http://krita.org/namespaces/svg/krita"
    xmlns:sodipodi="http://sodipodi.sourceforge.net/DTD/sodipodi-0.dtd"
    width="921.6pt"
    height="518.4pt"
    viewBox="0 0 921.6 518.4">
<defs/>
<path id="shape0" transform="matrix(0.999999952904974 0 0 0.999999952904974 483.756648398079 235.184328533934)" fill="#d96caa" fill-rule="evenodd" stroke-opacity="0" stroke="#000000" stroke-width="0" stroke-linecap="square" stroke-linejoin="bevel" d="M6.32084 6.42543L11.7322 12.7417L12.8539 16.5206L11.4291 18.9625L7.95789 22.2503L2.592 27.598L0 33.0957L1.69768 34.7055L14.0817 35.2921L17.4922 36.2744L19.7204 33.5459L23.1916 31.9362L17.856 27.0796L16.1886 24.0157L15.5217 20.0266L14.4 17.2573L16.992 11.8686L22.7217 8.69002L24.4042 6.94383L20.2813 4.42004L12.9145 2.57836L8.48842 0L5.80547 3.80615C5.70442 3.86072 5.87621 4.73381 6.32084 6.42543Z" sodipodi:nodetypes="cccccccccccccccccccccccc"/>
</svg>
